<?xml version="1.0" encoding="utf-8"?>
<!-- Generator: Adobe Illustrator 19.0.0, SVG Export Plug-In . SVG Version: 6.00 Build 0)  -->
<svg version="1.1" id="Layer_1" xmlns="http://www.w3.org/2000/svg" xmlns:xlink="http://www.w3.org/1999/xlink" x="0px" y="0px"
	 viewBox="0 0 425.2 283.5" style="enable-background:new 0 0 425.2 283.5;" xml:space="preserve">
<style type="text/css">
	.st0{fill:url(#XMLID_2_);}
	.st1{fill:#4C705F;}
	.st2{clip-path:url(#XMLID_3_);}
	.st3{fill:url(#XMLID_4_);}
	.st4{fill:url(#XMLID_5_);}
	.st5{fill:url(#XMLID_7_);}
	.st6{fill:#F1F2F2;}
	.st7{fill:#E6E7E8;}
	.st8{fill:#BCBEC0;}
	.st9{fill:none;}
	.st10{fill:#FFFFFF;}
</style>
<linearGradient id="XMLID_2_" gradientUnits="userSpaceOnUse" x1="147.8695" y1="141.73" x2="277.3305" y2="141.73">
	<stop  offset="0" style="stop-color:#58C4C9"/>
	<stop  offset="0.3197" style="stop-color:#6396B9"/>
	<stop  offset="0.6064" style="stop-color:#6A74AE"/>
	<stop  offset="0.843" style="stop-color:#6F5FA7"/>
	<stop  offset="1" style="stop-color:#7158A4"/>
</linearGradient>
<circle id="XMLID_205_" class="st0" cx="212.6" cy="141.7" r="64.7"/>
<g id="XMLID_6_">
	<path id="XMLID_159_" class="st1" d="M157.8,181.3"/>
	<g id="XMLID_35_">
		<defs>
			<circle id="XMLID_36_" cx="209.3" cy="149.1" r="13.4"/>
		</defs>
		<clipPath id="XMLID_3_">
			<use xlink:href="#XMLID_36_"  style="overflow:visible;"/>
		</clipPath>
		<g id="XMLID_37_" class="st2">
			<g id="XMLID_38_">
				<linearGradient id="XMLID_4_" gradientUnits="userSpaceOnUse" x1="195.1673" y1="145.5945" x2="223.6447" y2="162.036">
					<stop  offset="0" style="stop-color:#6D6E71"/>
					<stop  offset="4.037903e-02" style="stop-color:#7F8083;stop-opacity:0.9844"/>
					<stop  offset="0.1194" style="stop-color:#9D9EA0;stop-opacity:0.9539"/>
					<stop  offset="0.203" style="stop-color:#B4B6B7;stop-opacity:0.9215"/>
					<stop  offset="0.2922" style="stop-color:#C4C6C7;stop-opacity:0.8871"/>
					<stop  offset="0.3908" style="stop-color:#CED0D1;stop-opacity:0.8489"/>
					<stop  offset="0.5174" style="stop-color:#D1D3D4;stop-opacity:0.8"/>
					<stop  offset="0.7484" style="stop-color:#F1F2F2;stop-opacity:0.8627"/>
					<stop  offset="0.8856" style="stop-color:#FFFFFF;stop-opacity:0.9"/>
				</linearGradient>
				<path id="XMLID_41_" class="st3" d="M223.1,143.8c0,0-10.4-6.3-18.1-0.8c-5,3.5-9,1.3-9,1.3l-2.2,18.4l29,1L223.1,143.8z"/>
				<linearGradient id="XMLID_5_" gradientUnits="userSpaceOnUse" x1="217.4373" y1="167.2398" x2="199.3558" y2="135.9216">
					<stop  offset="0.1293" style="stop-color:#A7A9AC"/>
					<stop  offset="0.3291" style="stop-color:#AAABAE"/>
					<stop  offset="0.4491" style="stop-color:#B2B4B6"/>
					<stop  offset="0.5481" style="stop-color:#C0C2C4"/>
					<stop  offset="0.635" style="stop-color:#D4D6D7"/>
					<stop  offset="0.6916" style="stop-color:#E6E7E8"/>
					<stop  offset="0.7568" style="stop-color:#F1F2F2"/>
					<stop  offset="0.8562" style="stop-color:#FCFCFC"/>
					<stop  offset="0.9751" style="stop-color:#FFFFFF"/>
				</linearGradient>
				<path id="XMLID_40_" class="st4" d="M189.6,141.6c0,0,11.2-1.3,18,3.7c9.5,6.9,15.4-2.6,15.4-2.6l1.8,20.4l-29.2,0.6
					L189.6,141.6z"/>
				<linearGradient id="XMLID_7_" gradientUnits="userSpaceOnUse" x1="207.1739" y1="169.4333" x2="207.1739" y2="144.2387">
					<stop  offset="0" style="stop-color:#808285"/>
					<stop  offset="5.519413e-02" style="stop-color:#8E9092;stop-opacity:0.9711"/>
					<stop  offset="0.1795" style="stop-color:#A7A9AB;stop-opacity:0.906"/>
					<stop  offset="0.2921" style="stop-color:#B7B9BB;stop-opacity:0.8471"/>
					<stop  offset="0.382" style="stop-color:#BCBEC0;stop-opacity:0.8"/>
					<stop  offset="0.489" style="stop-color:#CDCED0;stop-opacity:0.8213"/>
					<stop  offset="0.7477" style="stop-color:#F1F2F2;stop-opacity:0.8726"/>
					<stop  offset="0.8856" style="stop-color:#FFFFFF;stop-opacity:0.9"/>
				</linearGradient>
				<path id="XMLID_39_" class="st5" d="M188.2,147.1c0,0,12.4,9.8,19,1.4c5.2-6.7,15.8-3.5,15.8-3.5l3.2,21.6l-26.5,2.8
					L188.2,147.1z"/>
			</g>
		</g>
	</g>
	<g id="XMLID_8_">
		<circle id="XMLID_34_" class="st6" cx="227.7" cy="120.6" r="4.4"/>
		<circle id="XMLID_32_" class="st7" cx="223" cy="110.3" r="3.1"/>
		<circle id="XMLID_23_" class="st8" cx="231.6" cy="104.7" r="2.5"/>
		<path id="XMLID_22_" class="st9" d="M212.4,134.2l-0.7,1L212.4,134.2C212.4,134.2,212.4,134.2,212.4,134.2c-1-0.2-2.1-0.3-3.1-0.3
			c-4.2,0-7.7,1.5-10.7,4.4c-3,3-4.4,6.5-4.4,10.7c0,4.2,1.5,7.8,4.4,10.7c3,3,6.5,4.4,10.7,4.4c4.1,0,7.6-1.4,10.5-4.2
			c2.9-2.8,4.5-6.2,4.6-10.2c0-0.3,0-0.5,0-0.8c0-0.2,0-0.5,0-0.8c-0.2-3.9-1.6-7.3-4.4-10l-0.7,0.9l0.7-0.9
			c-0.1-0.1-0.2-0.2-0.3-0.3C217.6,136,215.2,134.7,212.4,134.2z"/>
		<path id="XMLID_11_" class="st10" d="M224.4,132.8C224.4,132.8,224.3,132.7,224.4,132.8l-4.4,5.5c2.7,2.7,4.2,6,4.4,10
			c0,0.3,0,0.5,0,0.8c0,0.2,0,0.5,0,0.8c-0.2,4-1.7,7.4-4.6,10.2c-2.9,2.8-6.4,4.2-10.5,4.2c-4.2,0-7.7-1.5-10.7-4.4
			c-3-3-4.4-6.5-4.4-10.7c0-4.2,1.5-7.8,4.4-10.7c3-3,6.5-4.4,10.7-4.4c1.1,0,2.1,0.1,3.1,0.3c0,0,0,0,0,0l4.6-6
			c-2.4-0.9-5-1.3-7.7-1.3c-6.1,0-11.3,2.2-15.7,6.5c-4.3,4.3-6.5,9.6-6.5,15.7c0,6.1,2.2,11.4,6.5,15.7c4.3,4.3,9.6,6.5,15.7,6.5
			c5.8,0,10.9-2,15.1-6v6h7.1v-23.7C231.1,141.8,228.7,136.8,224.4,132.8z"/>
	</g>
</g>
</svg>
