<?xml version="1.0" encoding="utf-8"?>
<!-- Generator: Adobe Illustrator 19.0.0, SVG Export Plug-In . SVG Version: 6.00 Build 0)  -->
<svg version="1.1" id="Layer_1" xmlns="http://www.w3.org/2000/svg" xmlns:xlink="http://www.w3.org/1999/xlink" x="0px" y="0px"
	 viewBox="0 0 271.6 283.5" style="enable-background:new 0 0 271.6 283.5;" xml:space="preserve">
<style type="text/css">
	.st0{fill:#4C705F;}
	.st1{clip-path:url(#XMLID_43_);}
	.st2{fill:url(#XMLID_44_);}
	.st3{fill:url(#XMLID_45_);}
	.st4{fill:url(#XMLID_46_);}
	.st5{fill:#8DD4DF;}
	.st6{fill:#32BEC3;}
	.st7{fill:#38AEC7;}
	.st8{fill:none;}
	.st9{fill:#808184;}
</style>
<g id="XMLID_6_">
	<path id="XMLID_159_" class="st0" d="M-2.6,243.8"/>
	<g id="XMLID_35_">
		<defs>
			<ellipse id="XMLID_36_" cx="126.6" cy="159.4" rx="33.6" ry="35"/>
		</defs>
		<clipPath id="XMLID_43_">
			<use xlink:href="#XMLID_36_"  style="overflow:visible;"/>
		</clipPath>
		<g id="XMLID_37_" class="st1">
			<g id="XMLID_38_">
				<linearGradient id="XMLID_44_" gradientUnits="userSpaceOnUse" x1="124.3765" y1="137.5382" x2="124.3765" y2="197.6807">
					<stop  offset="0" style="stop-color:#58C4C9"/>
					<stop  offset="1.745737e-02" style="stop-color:#57BDC7"/>
					<stop  offset="0.1034" style="stop-color:#52A1BC"/>
					<stop  offset="0.2001" style="stop-color:#4D89B4"/>
					<stop  offset="0.3102" style="stop-color:#4A77AD"/>
					<stop  offset="0.4415" style="stop-color:#486AA8"/>
					<stop  offset="0.6153" style="stop-color:#4663A6"/>
					<stop  offset="1" style="stop-color:#4661A5"/>
				</linearGradient>
				<path id="XMLID_41_" class="st2" d="M161.2,145.6c0,0-26.1-16.5-45.5-2.2c-12.4,9.1-22.6,3.5-22.6,3.5l-5.5,48.2l72.7,2.6
					L161.2,145.6z"/>
				<linearGradient id="XMLID_45_" gradientUnits="userSpaceOnUse" x1="121.2901" y1="139.3896" x2="121.2901" y2="197.4264">
					<stop  offset="0" style="stop-color:#38AEC7"/>
					<stop  offset="1" style="stop-color:#4661A5"/>
				</linearGradient>
				<path id="XMLID_40_" class="st3" d="M77.1,139.8c0,0,28.2-3.4,45.3,9.6c23.8,18.2,38.6-6.9,38.6-6.9l4.6,53.4l-73.3,1.5
					L77.1,139.8z"/>
				<linearGradient id="XMLID_46_" gradientUnits="userSpaceOnUse" x1="121.2901" y1="146.7714" x2="121.2901" y2="212.763">
					<stop  offset="0" style="stop-color:#58C4C9"/>
					<stop  offset="0.3197" style="stop-color:#6396B9"/>
					<stop  offset="0.6064" style="stop-color:#6A74AE"/>
					<stop  offset="0.843" style="stop-color:#6F5FA7"/>
					<stop  offset="1" style="stop-color:#7158A4"/>
				</linearGradient>
				<path id="XMLID_39_" class="st4" d="M73.7,154.3c0,0,31.1,25.6,47.6,3.6c13.2-17.5,39.7-9.1,39.7-9.1l7.9,56.6l-66.6,7.4
					L73.7,154.3z"/>
			</g>
		</g>
	</g>
	<g id="XMLID_8_">
		<ellipse id="XMLID_34_" class="st5" cx="172.8" cy="84.8" rx="11" ry="11.5"/>
		<ellipse id="XMLID_32_" class="st6" cx="161.1" cy="58" rx="7.8" ry="8.2"/>
		<ellipse id="XMLID_23_" class="st7" cx="182.7" cy="43.2" rx="6.3" ry="6.6"/>
		<path id="XMLID_22_" class="st8" d="M134.5,120.4l-1.9,2.6L134.5,120.4C134.5,120.4,134.5,120.4,134.5,120.4
			c-2.5-0.5-5.2-0.8-7.9-0.8c-10.4,0-19.4,3.9-26.8,11.6c-7.4,7.7-11.1,17.1-11.1,28.1c0,11,3.7,20.4,11.1,28.1
			c7.4,7.8,16.3,11.6,26.8,11.6c10.2,0,19-3.7,26.3-11.1c7.3-7.4,11.2-16.3,11.6-26.7c0-0.7,0-1.4,0-2c0-0.6,0-1.3,0-2
			c-0.5-10.3-4.1-19-11-26.1l-1.8,2.5l1.8-2.5c-0.2-0.2-0.4-0.5-0.7-0.7C147.5,125.2,141.4,121.9,134.5,120.4z"/>
		<path id="XMLID_11_" class="st9" d="M164.5,116.8c-0.1-0.1-0.2-0.1-0.2-0.2l-10.7,14.7c6.8,7.1,10.5,15.8,11,26.1c0,0.7,0,1.4,0,2
			c0,0.6,0,1.3,0,2c-0.5,10.4-4.3,19.3-11.6,26.7c-7.3,7.4-16.1,11.1-26.3,11.1c-10.4,0-19.4-3.9-26.8-11.6
			c-7.4-7.7-11.1-17.1-11.1-28.1c0-11,3.7-20.4,11.1-28.1c7.4-7.7,16.3-11.6,26.8-11.6c2.7,0,5.4,0.3,7.9,0.8c0,0,0,0,0,0l11.5-15.8
			c-6-2.3-12.5-3.5-19.4-3.5c-15.3,0-28.4,5.7-39.3,17.1c-10.9,11.4-16.3,25.1-16.3,41.2c0,16.1,5.4,29.8,16.3,41.2
			c10.9,11.4,24,17.1,39.3,17.1c14.6,0,27.2-5.2,37.9-15.6v15.7h17.7v-62.1C181.3,140.4,175.4,127.4,164.5,116.8z"/>
	</g>
</g>
</svg>
